STARTFONT 2.3
FONT -FontForge-Zen Tokyo Zoo-Book-R-Normal--14-140-72-72-P-65-ISO10646-1
SIZE 14 72 72  2
FONTBOUNDINGBOX 19 20 -2 -4
COMMENT "Generated by fontforge, http://fontforge.sourceforge.net"
COMMENT "Copyright 2021 The Zen Tokyo Zoo Project Authors (https://github.com/googlefonts/zen-tokyo-zoo)"
STARTPROPERTIES 40
FOUNDRY "FontForge"
FAMILY_NAME "Zen Tokyo Zoo"
WEIGHT_NAME "Book"
SLANT "R"
SETWIDTH_NAME "Normal"
ADD_STYLE_NAME ""
PIXEL_SIZE 14
POINT_SIZE 140
RESOLUTION_X 72
RESOLUTION_Y 72
SPACING "P"
AVERAGE_WIDTH 65
CHARSET_REGISTRY "ISO10646"
CHARSET_ENCODING "1"
FONTNAME_REGISTRY ""
CHARSET_COLLECTIONS "ISO10646-1"
BITS_PER_PIXEL 2
FONT_NAME "ZenTokyoZoo-Regular"
FACE_NAME "Zen Tokyo Zoo Regular"
COPYRIGHT "Copyright 2021 The Zen Tokyo Zoo Project Authors (https://github.com/googlefonts/zen-tokyo-zoo)"
FONT_VERSION "1.002; ttfautohint (v1.8.3)"
FONT_ASCENT 11
FONT_DESCENT 3
UNDERLINE_POSITION -2
UNDERLINE_THICKNESS 1
X_HEIGHT 5
CAP_HEIGHT 11
RAW_ASCENT 800
RAW_DESCENT 200
NORM_SPACE 4
RELATIVE_WEIGHT 40
RELATIVE_SETWIDTH 50
SUPERSCRIPT_X 0
SUPERSCRIPT_Y 4
SUPERSCRIPT_SIZE 8
SUBSCRIPT_X 0
SUBSCRIPT_Y 1
SUBSCRIPT_SIZE 8
AVG_LOWERCASE_WIDTH 57
AVG_UPPERCASE_WIDTH 106
ENDPROPERTIES
CHARS 338
STARTCHAR CR
ENCODING 13
SWIDTH 600 0
DWIDTH 8 0
BBX 1 1 0 0
BITMAP
00
ENDCHAR
STARTCHAR space
ENCODING 32
SWIDTH 280 0
DWIDTH 4 0
BBX 1 1 0 0
BITMAP
00
ENDCHAR
STARTCHAR exclam
ENCODING 33
SWIDTH 196 0
DWIDTH 3 0
BBX 2 6 0 0
BITMAP
60
60
60
60
10
60
ENDCHAR
STARTCHAR quotedbl
ENCODING 34
SWIDTH 302 0
DWIDTH 4 0
BBX 4 2 0 4
BITMAP
55
55
ENDCHAR
STARTCHAR numbersign
ENCODING 35
SWIDTH 513 0
DWIDTH 7 0
BBX 6 6 1 0
BITMAP
1540
5550
5690
5540
5640
5500
ENDCHAR
STARTCHAR dollar
ENCODING 36
SWIDTH 379 0
DWIDTH 5 0
BBX 5 7 0 -1
BITMAP
0400
5540
5400
1540
0640
5540
1500
ENDCHAR
STARTCHAR percent
ENCODING 37
SWIDTH 493 0
DWIDTH 7 0
BBX 7 6 0 0
BITMAP
6850
5540
1540
0550
1554
1494
ENDCHAR
STARTCHAR ampersand
ENCODING 38
SWIDTH 487 0
DWIDTH 7 0
BBX 7 6 0 0
BITMAP
0A40
1940
0640
1954
5540
2550
ENDCHAR
STARTCHAR quotesingle
ENCODING 39
SWIDTH 146 0
DWIDTH 2 0
BBX 2 2 0 4
BITMAP
50
50
ENDCHAR
STARTCHAR parenleft
ENCODING 40
SWIDTH 210 0
DWIDTH 3 0
BBX 3 7 0 0
BITMAP
14
24
50
50
50
50
14
ENDCHAR
STARTCHAR parenright
ENCODING 41
SWIDTH 210 0
DWIDTH 3 0
BBX 3 7 0 0
BITMAP
50
50
14
14
14
24
50
ENDCHAR
STARTCHAR asterisk
ENCODING 42
SWIDTH 358 0
DWIDTH 5 0
BBX 3 4 1 2
BITMAP
20
44
54
04
ENDCHAR
STARTCHAR plus
ENCODING 43
SWIDTH 394 0
DWIDTH 6 0
BBX 5 4 0 1
BITMAP
0500
5540
5540
0500
ENDCHAR
STARTCHAR comma
ENCODING 44
SWIDTH 216 0
DWIDTH 3 0
BBX 3 2 0 -1
BITMAP
14
50
ENDCHAR
STARTCHAR hyphen
ENCODING 45
SWIDTH 326 0
DWIDTH 5 0
BBX 3 2 1 2
BITMAP
54
54
ENDCHAR
STARTCHAR period
ENCODING 46
SWIDTH 176 0
DWIDTH 2 0
BBX 2 1 0 0
BITMAP
50
ENDCHAR
STARTCHAR slash
ENCODING 47
SWIDTH 298 0
DWIDTH 4 0
BBX 4 6 0 0
BITMAP
05
05
14
14
14
50
ENDCHAR
STARTCHAR zero
ENCODING 48
SWIDTH 306 0
DWIDTH 4 0
BBX 4 6 0 0
BITMAP
29
55
55
55
55
15
ENDCHAR
STARTCHAR one
ENCODING 49
SWIDTH 306 0
DWIDTH 4 0
BBX 3 6 1 0
BITMAP
54
54
14
14
14
14
ENDCHAR
STARTCHAR two
ENCODING 50
SWIDTH 299 0
DWIDTH 4 0
BBX 4 6 0 0
BITMAP
25
55
15
14
55
55
ENDCHAR
STARTCHAR three
ENCODING 51
SWIDTH 324 0
DWIDTH 5 0
BBX 4 6 0 0
BITMAP
15
55
05
05
55
15
ENDCHAR
STARTCHAR four
ENCODING 52
SWIDTH 339 0
DWIDTH 5 0
BBX 5 6 0 0
BITMAP
0500
1400
1400
5540
0140
5540
ENDCHAR
STARTCHAR five
ENCODING 53
SWIDTH 363 0
DWIDTH 5 0
BBX 4 6 1 0
BITMAP
54
54
50
54
55
54
ENDCHAR
STARTCHAR six
ENCODING 54
SWIDTH 306 0
DWIDTH 4 0
BBX 4 6 0 0
BITMAP
29
50
54
55
55
15
ENDCHAR
STARTCHAR seven
ENCODING 55
SWIDTH 298 0
DWIDTH 4 0
BBX 4 6 0 0
BITMAP
55
55
05
15
14
14
ENDCHAR
STARTCHAR eight
ENCODING 56
SWIDTH 306 0
DWIDTH 4 0
BBX 4 6 0 0
BITMAP
69
55
58
56
55
15
ENDCHAR
STARTCHAR nine
ENCODING 57
SWIDTH 306 0
DWIDTH 4 0
BBX 4 6 0 0
BITMAP
29
55
45
15
55
15
ENDCHAR
STARTCHAR colon
ENCODING 58
SWIDTH 176 0
DWIDTH 2 0
BBX 2 3 0 0
BITMAP
50
00
50
ENDCHAR
STARTCHAR semicolon
ENCODING 59
SWIDTH 217 0
DWIDTH 3 0
BBX 3 4 0 -1
BITMAP
14
00
14
50
ENDCHAR
STARTCHAR less
ENCODING 60
SWIDTH 450 0
DWIDTH 6 0
BBX 5 6 1 0
BITMAP
0040
0540
1500
5400
1540
0140
ENDCHAR
STARTCHAR equal
ENCODING 61
SWIDTH 344 0
DWIDTH 5 0
BBX 4 4 0 0
BITMAP
55
55
55
55
ENDCHAR
STARTCHAR greater
ENCODING 62
SWIDTH 450 0
DWIDTH 6 0
BBX 5 6 0 0
BITMAP
5000
5500
1540
0540
5500
5000
ENDCHAR
STARTCHAR question
ENCODING 63
SWIDTH 346 0
DWIDTH 5 0
BBX 4 6 0 0
BITMAP
15
55
06
09
14
14
ENDCHAR
STARTCHAR at
ENCODING 64
SWIDTH 490 0
DWIDTH 7 0
BBX 7 6 0 0
BITMAP
1A90
6560
5594
5554
6550
1A40
ENDCHAR
STARTCHAR A
ENCODING 65
SWIDTH 798 0
DWIDTH 11 0
BBX 11 12 0 0
BITMAP
005400
005500
015500
015500
055540
054540
054540
155550
155550
155550
550054
540054
ENDCHAR
STARTCHAR B
ENCODING 66
SWIDTH 784 0
DWIDTH 11 0
BBX 11 12 0 0
BITMAP
655540
655550
655550
640150
655550
655550
655554
640054
640054
655554
655560
655540
ENDCHAR
STARTCHAR C
ENCODING 67
SWIDTH 776 0
DWIDTH 11 0
BBX 10 12 0 0
BITMAP
015540
055560
165550
1A0040
540000
540000
540000
540000
160040
155550
055560
015540
ENDCHAR
STARTCHAR D
ENCODING 68
SWIDTH 806 0
DWIDTH 11 0
BBX 11 12 0 0
BITMAP
655500
655580
655560
640154
640054
640054
640054
640054
640154
655560
655580
655500
ENDCHAR
STARTCHAR E
ENCODING 69
SWIDTH 677 0
DWIDTH 9 0
BBX 9 12 0 0
BITMAP
655540
655540
655540
640000
640000
655500
655500
655500
640000
655540
655540
655540
ENDCHAR
STARTCHAR F
ENCODING 70
SWIDTH 677 0
DWIDTH 9 0
BBX 9 12 0 0
BITMAP
655540
655540
655540
640000
640000
655500
655500
655500
640000
640000
640000
640000
ENDCHAR
STARTCHAR G
ENCODING 71
SWIDTH 872 0
DWIDTH 12 0
BBX 12 12 0 0
BITMAP
015540
055550
165554
1A0054
540000
540555
540555
540555
160055
155554
055554
015540
ENDCHAR
STARTCHAR H
ENCODING 72
SWIDTH 781 0
DWIDTH 11 0
BBX 11 12 0 0
BITMAP
6400A4
6400A4
6400A4
6400A4
6400A4
6555A4
6555A4
6555A4
6400A4
6400A4
6400A4
6400A4
ENDCHAR
STARTCHAR I
ENCODING 73
SWIDTH 262 0
DWIDTH 4 0
BBX 3 12 0 0
BITMAP
64
64
64
64
64
64
64
64
64
64
64
64
ENDCHAR
STARTCHAR J
ENCODING 74
SWIDTH 674 0
DWIDTH 9 0
BBX 9 12 0 0
BITMAP
000540
000540
000540
000540
000540
000540
000540
540540
540540
555540
155500
055400
ENDCHAR
STARTCHAR K
ENCODING 75
SWIDTH 739 0
DWIDTH 10 0
BBX 10 12 0 0
BITMAP
640150
640540
641540
641500
645400
655400
655400
646400
645500
641540
640940
640160
ENDCHAR
STARTCHAR L
ENCODING 76
SWIDTH 604 0
DWIDTH 8 0
BBX 8 12 0 0
BITMAP
6400
6400
6400
6400
6400
6400
6400
6400
6400
6555
6555
6555
ENDCHAR
STARTCHAR M
ENCODING 77
SWIDTH 909 0
DWIDTH 13 0
BBX 12 12 0 0
BITMAP
640016
650056
644056
655156
649556
655556
645556
641416
641416
640016
640016
640016
ENDCHAR
STARTCHAR N
ENCODING 78
SWIDTH 796 0
DWIDTH 11 0
BBX 11 12 0 0
BITMAP
640054
650054
644054
655054
659054
655454
645554
641954
641554
640554
640154
640054
ENDCHAR
STARTCHAR O
ENCODING 79
SWIDTH 894 0
DWIDTH 13 0
BBX 12 12 0 0
BITMAP
015540
055554
165554
1A0055
540015
540016
540015
540015
160055
155554
055554
015540
ENDCHAR
STARTCHAR P
ENCODING 80
SWIDTH 743 0
DWIDTH 10 0
BBX 10 12 0 0
BITMAP
655540
655550
655550
640150
655550
655550
655540
640000
640000
640000
640000
640000
ENDCHAR
STARTCHAR Q
ENCODING 81
SWIDTH 911 0
DWIDTH 13 0
BBX 12 12 0 0
BITMAP
015540
055554
165554
1A0055
540015
540016
540016
540065
160159
15559A
055565
015544
ENDCHAR
STARTCHAR R
ENCODING 82
SWIDTH 745 0
DWIDTH 10 0
BBX 10 12 0 0
BITMAP
655540
655550
655550
640150
655550
655550
655540
641500
640540
640540
640550
640150
ENDCHAR
STARTCHAR S
ENCODING 83
SWIDTH 660 0
DWIDTH 9 0
BBX 9 12 0 0
BITMAP
055400
155500
555540
540500
650000
1A9400
01AA00
000940
140540
555540
155540
055400
ENDCHAR
STARTCHAR T
ENCODING 84
SWIDTH 641 0
DWIDTH 9 0
BBX 9 12 0 0
BITMAP
555540
555540
555540
015000
015000
015000
015000
015000
015000
015000
015000
015000
ENDCHAR
STARTCHAR U
ENCODING 85
SWIDTH 702 0
DWIDTH 10 0
BBX 9 12 0 0
BITMAP
640280
640280
640280
640280
640280
640280
640280
540540
550540
155540
155540
055500
ENDCHAR
STARTCHAR V
ENCODING 86
SWIDTH 758 0
DWIDTH 11 0
BBX 10 12 0 0
BITMAP
540150
540150
150150
150540
150540
054540
055500
055500
015500
015400
015000
005400
ENDCHAR
STARTCHAR W
ENCODING 87
SWIDTH 972 0
DWIDTH 14 0
BBX 14 12 0 0
BITMAP
54150150
54150540
15150540
15154540
15554540
15555500
15555500
05555500
05515500
05515400
05416000
01505400
ENDCHAR
STARTCHAR X
ENCODING 88
SWIDTH 712 0
DWIDTH 10 0
BBX 10 12 0 0
BITMAP
550550
150540
055500
055500
015400
015400
015400
055500
055500
155540
150540
550550
ENDCHAR
STARTCHAR Y
ENCODING 89
SWIDTH 769 0
DWIDTH 11 0
BBX 11 12 0 0
BITMAP
550154
160150
154540
055540
015500
015500
005400
005400
005400
005400
005400
005400
ENDCHAR
STARTCHAR Z
ENCODING 90
SWIDTH 708 0
DWIDTH 10 0
BBX 10 12 0 0
BITMAP
155550
155540
155540
001500
005400
005400
015000
055000
054000
155540
155540
555540
ENDCHAR
STARTCHAR bracketleft
ENCODING 91
SWIDTH 320 0
DWIDTH 4 0
BBX 4 7 0 -1
BITMAP
55
65
60
60
60
65
55
ENDCHAR
STARTCHAR backslash
ENCODING 92
SWIDTH 298 0
DWIDTH 4 0
BBX 4 6 0 0
BITMAP
50
14
14
14
05
05
ENDCHAR
STARTCHAR bracketright
ENCODING 93
SWIDTH 320 0
DWIDTH 4 0
BBX 3 7 1 -1
BITMAP
54
54
14
14
14
54
54
ENDCHAR
STARTCHAR asciicircum
ENCODING 94
SWIDTH 309 0
DWIDTH 4 0
BBX 3 2 1 3
BITMAP
50
54
ENDCHAR
STARTCHAR underscore
ENCODING 95
SWIDTH 472 0
DWIDTH 7 0
BBX 5 2 1 0
BITMAP
5540
5540
ENDCHAR
STARTCHAR grave
ENCODING 96
SWIDTH 195 0
DWIDTH 3 0
BBX 1 1 1 7
BITMAP
40
ENDCHAR
STARTCHAR a
ENCODING 97
SWIDTH 414 0
DWIDTH 6 0
BBX 6 6 0 0
BITMAP
0600
1600
1940
1A40
5A40
6550
ENDCHAR
STARTCHAR b
ENCODING 98
SWIDTH 423 0
DWIDTH 6 0
BBX 6 6 0 0
BITMAP
5540
5550
5590
5550
5550
5580
ENDCHAR
STARTCHAR c
ENCODING 99
SWIDTH 446 0
DWIDTH 6 0
BBX 6 6 0 0
BITMAP
1540
5550
5000
5000
5550
1540
ENDCHAR
STARTCHAR d
ENCODING 100
SWIDTH 450 0
DWIDTH 6 0
BBX 6 6 0 0
BITMAP
5540
5550
5050
5050
5550
5540
ENDCHAR
STARTCHAR e
ENCODING 101
SWIDTH 363 0
DWIDTH 5 0
BBX 5 6 0 0
BITMAP
5540
5540
5500
5500
5540
5540
ENDCHAR
STARTCHAR f
ENCODING 102
SWIDTH 365 0
DWIDTH 5 0
BBX 5 6 0 0
BITMAP
5540
5540
5500
5500
5000
5000
ENDCHAR
STARTCHAR g
ENCODING 103
SWIDTH 483 0
DWIDTH 7 0
BBX 7 6 0 0
BITMAP
1540
5550
5050
50A4
5550
1550
ENDCHAR
STARTCHAR h
ENCODING 104
SWIDTH 428 0
DWIDTH 6 0
BBX 6 6 0 0
BITMAP
5050
5050
5550
5550
5050
5050
ENDCHAR
STARTCHAR i
ENCODING 105
SWIDTH 176 0
DWIDTH 2 0
BBX 2 6 0 0
BITMAP
50
50
50
50
50
50
ENDCHAR
STARTCHAR j
ENCODING 106
SWIDTH 390 0
DWIDTH 5 0
BBX 5 6 0 0
BITMAP
0140
0140
0140
5140
5540
1500
ENDCHAR
STARTCHAR k
ENCODING 107
SWIDTH 381 0
DWIDTH 5 0
BBX 5 6 0 0
BITMAP
5140
5540
5900
5500
5500
5180
ENDCHAR
STARTCHAR l
ENCODING 108
SWIDTH 330 0
DWIDTH 5 0
BBX 5 6 0 0
BITMAP
5000
5000
5000
5000
5540
5540
ENDCHAR
STARTCHAR m
ENCODING 109
SWIDTH 501 0
DWIDTH 7 0
BBX 7 6 0 0
BITMAP
5464
5554
5654
5554
5014
5014
ENDCHAR
STARTCHAR n
ENCODING 110
SWIDTH 444 0
DWIDTH 6 0
BBX 6 6 0 0
BITMAP
5450
5850
5550
5590
5150
5090
ENDCHAR
STARTCHAR o
ENCODING 111
SWIDTH 494 0
DWIDTH 7 0
BBX 7 6 0 0
BITMAP
1550
5550
5014
5014
5550
1550
ENDCHAR
STARTCHAR p
ENCODING 112
SWIDTH 412 0
DWIDTH 6 0
BBX 6 6 0 0
BITMAP
5540
5550
5550
5540
5000
5000
ENDCHAR
STARTCHAR q
ENCODING 113
SWIDTH 494 0
DWIDTH 7 0
BBX 7 6 0 0
BITMAP
1550
5550
5014
5054
5564
1590
ENDCHAR
STARTCHAR r
ENCODING 114
SWIDTH 412 0
DWIDTH 6 0
BBX 6 6 0 0
BITMAP
5540
5550
5550
5680
5140
5140
ENDCHAR
STARTCHAR s
ENCODING 115
SWIDTH 379 0
DWIDTH 5 0
BBX 5 6 0 0
BITMAP
1500
5540
6500
0640
5540
1540
ENDCHAR
STARTCHAR t
ENCODING 116
SWIDTH 349 0
DWIDTH 5 0
BBX 5 6 0 0
BITMAP
5540
6940
1800
1800
1800
1800
ENDCHAR
STARTCHAR u
ENCODING 117
SWIDTH 400 0
DWIDTH 6 0
BBX 5 6 0 0
BITMAP
5140
5140
5140
5140
5540
1540
ENDCHAR
STARTCHAR v
ENCODING 118
SWIDTH 394 0
DWIDTH 6 0
BBX 6 6 0 0
BITMAP
5150
5140
1540
1940
1500
0600
ENDCHAR
STARTCHAR w
ENCODING 119
SWIDTH 521 0
DWIDTH 7 0
BBX 7 6 0 0
BITMAP
5154
5554
5954
1A54
1560
1860
ENDCHAR
STARTCHAR x
ENCODING 120
SWIDTH 369 0
DWIDTH 5 0
BBX 5 6 0 0
BITMAP
5140
1900
1500
1900
1940
5140
ENDCHAR
STARTCHAR y
ENCODING 121
SWIDTH 422 0
DWIDTH 6 0
BBX 6 6 0 0
BITMAP
5150
1A80
1640
0500
0500
0500
ENDCHAR
STARTCHAR z
ENCODING 122
SWIDTH 409 0
DWIDTH 6 0
BBX 5 6 0 0
BITMAP
5540
1680
0540
1500
6940
5540
ENDCHAR
STARTCHAR braceleft
ENCODING 123
SWIDTH 443 0
DWIDTH 6 0
BBX 5 7 1 -1
BITMAP
1540
1540
5400
5400
1400
1540
1540
ENDCHAR
STARTCHAR bar
ENCODING 124
SWIDTH 196 0
DWIDTH 3 0
BBX 2 7 0 0
BITMAP
10
60
60
60
60
60
60
ENDCHAR
STARTCHAR braceright
ENCODING 125
SWIDTH 506 0
DWIDTH 7 0
BBX 5 7 1 -1
BITMAP
5500
5500
0540
0540
0500
5500
5500
ENDCHAR
STARTCHAR asciitilde
ENCODING 126
SWIDTH 450 0
DWIDTH 6 0
BBX 6 3 0 2
BITMAP
5410
6410
4150
ENDCHAR
STARTCHAR uni00A0
ENCODING 160
SWIDTH 280 0
DWIDTH 4 0
BBX 1 1 0 0
BITMAP
00
ENDCHAR
STARTCHAR exclamdown
ENCODING 161
SWIDTH 196 0
DWIDTH 3 0
BBX 2 6 0 -2
BITMAP
60
10
60
60
60
60
ENDCHAR
STARTCHAR cent
ENCODING 162
SWIDTH 305 0
DWIDTH 4 0
BBX 4 7 0 -1
BITMAP
14
15
55
50
55
15
14
ENDCHAR
STARTCHAR sterling
ENCODING 163
SWIDTH 408 0
DWIDTH 6 0
BBX 5 6 0 0
BITMAP
6500
5500
5500
5500
5540
5540
ENDCHAR
STARTCHAR currency
ENCODING 164
SWIDTH 401 0
DWIDTH 6 0
BBX 5 6 0 0
BITMAP
1040
5540
1500
1500
5540
1040
ENDCHAR
STARTCHAR yen
ENCODING 165
SWIDTH 423 0
DWIDTH 6 0
BBX 6 6 0 0
BITMAP
5150
1A80
1640
0500
1540
1540
ENDCHAR
STARTCHAR brokenbar
ENCODING 166
SWIDTH 196 0
DWIDTH 3 0
BBX 2 7 0 0
BITMAP
50
60
60
00
50
60
60
ENDCHAR
STARTCHAR section
ENCODING 167
SWIDTH 322 0
DWIDTH 5 0
BBX 4 6 0 0
BITMAP
79
59
56
56
15
2E
ENDCHAR
STARTCHAR dieresis
ENCODING 168
SWIDTH 287 0
DWIDTH 4 0
BBX 2 1 1 7
BITMAP
50
ENDCHAR
STARTCHAR copyright
ENCODING 169
SWIDTH 493 0
DWIDTH 7 0
BBX 7 7 0 0
BITMAP
0540
2020
4544
4404
4544
2020
0540
ENDCHAR
STARTCHAR ordfeminine
ENCODING 170
SWIDTH 331 0
DWIDTH 5 0
BBX 3 3 1 3
BITMAP
64
A4
A4
ENDCHAR
STARTCHAR guillemotleft
ENCODING 171
SWIDTH 298 0
DWIDTH 4 0
BBX 4 3 0 1
BITMAP
15
55
11
ENDCHAR
STARTCHAR logicalnot
ENCODING 172
SWIDTH 420 0
DWIDTH 6 0
BBX 6 3 0 1
BITMAP
5540
5540
0090
ENDCHAR
STARTCHAR uni00AD
ENCODING 173
SWIDTH 326 0
DWIDTH 5 0
BBX 3 2 1 2
BITMAP
54
54
ENDCHAR
STARTCHAR registered
ENCODING 174
SWIDTH 493 0
DWIDTH 7 0
BBX 7 7 0 0
BITMAP
0540
2020
4544
4544
4444
2020
0540
ENDCHAR
STARTCHAR macron
ENCODING 175
SWIDTH 331 0
DWIDTH 5 0
BBX 3 1 1 7
BITMAP
54
ENDCHAR
STARTCHAR degree
ENCODING 176
SWIDTH 298 0
DWIDTH 4 0
BBX 4 4 0 3
BITMAP
14
55
55
14
ENDCHAR
STARTCHAR plusminus
ENCODING 177
SWIDTH 418 0
DWIDTH 6 0
BBX 5 6 0 0
BITMAP
0500
1540
1540
0500
5540
5540
ENDCHAR
STARTCHAR uni00B2
ENCODING 178
SWIDTH 233 0
DWIDTH 3 0
BBX 2 3 1 3
BITMAP
90
50
90
ENDCHAR
STARTCHAR uni00B3
ENCODING 179
SWIDTH 228 0
DWIDTH 3 0
BBX 2 3 1 3
BITMAP
90
10
90
ENDCHAR
STARTCHAR acute
ENCODING 180
SWIDTH 195 0
DWIDTH 3 0
BBX 1 2 1 7
BITMAP
40
40
ENDCHAR
STARTCHAR uni00B5
ENCODING 181
SWIDTH 506 0
DWIDTH 7 0
BBX 7 8 0 -2
BITMAP
6050
6050
6050
6150
6550
6554
6000
1000
ENDCHAR
STARTCHAR paragraph
ENCODING 182
SWIDTH 435 0
DWIDTH 6 0
BBX 6 6 0 0
BITMAP
1550
5550
5550
1650
0250
0250
ENDCHAR
STARTCHAR periodcentered
ENCODING 183
SWIDTH 176 0
DWIDTH 2 0
BBX 2 1 0 3
BITMAP
50
ENDCHAR
STARTCHAR cedilla
ENCODING 184
SWIDTH 261 0
DWIDTH 4 0
BBX 2 3 1 -3
BITMAP
90
10
50
ENDCHAR
STARTCHAR uni00B9
ENCODING 185
SWIDTH 218 0
DWIDTH 3 0
BBX 3 3 0 3
BITMAP
54
14
14
ENDCHAR
STARTCHAR ordmasculine
ENCODING 186
SWIDTH 335 0
DWIDTH 5 0
BBX 4 3 0 3
BITMAP
29
52
29
ENDCHAR
STARTCHAR guillemotright
ENCODING 187
SWIDTH 298 0
DWIDTH 4 0
BBX 4 3 0 1
BITMAP
55
15
04
ENDCHAR
STARTCHAR onequarter
ENCODING 188
SWIDTH 429 0
DWIDTH 6 0
BBX 6 6 0 0
BITMAP
5040
5140
1200
0540
0980
1450
ENDCHAR
STARTCHAR onehalf
ENCODING 189
SWIDTH 437 0
DWIDTH 6 0
BBX 6 6 0 0
BITMAP
6040
1140
1550
0550
1450
1050
ENDCHAR
STARTCHAR threequarters
ENCODING 190
SWIDTH 409 0
DWIDTH 6 0
BBX 6 7 0 -1
BITMAP
1040
1140
5500
0540
1540
1550
1000
ENDCHAR
STARTCHAR questiondown
ENCODING 191
SWIDTH 346 0
DWIDTH 5 0
BBX 4 6 0 -1
BITMAP
14
04
14
54
59
15
ENDCHAR
STARTCHAR Agrave
ENCODING 192
SWIDTH 798 0
DWIDTH 11 0
BBX 11 16 0 0
BITMAP
014000
005000
005000
000000
005400
005500
015500
015500
055540
054540
054540
155550
155550
155550
550054
540054
ENDCHAR
STARTCHAR Aacute
ENCODING 193
SWIDTH 798 0
DWIDTH 11 0
BBX 11 16 0 0
BITMAP
000500
001500
001400
000000
005400
005500
015500
015500
055540
054540
054540
155550
155550
155550
550054
540054
ENDCHAR
STARTCHAR Acircumflex
ENCODING 194
SWIDTH 798 0
DWIDTH 11 0
BBX 11 16 0 0
BITMAP
00A400
015500
054900
000000
005400
005500
015500
015500
055540
054540
054540
155550
155550
155550
550054
540054
ENDCHAR
STARTCHAR Atilde
ENCODING 195
SWIDTH 798 0
DWIDTH 11 0
BBX 11 14 0 0
BITMAP
015100
011500
005400
005500
015500
015500
055540
054540
054540
155550
155550
155550
550054
540054
ENDCHAR
STARTCHAR Adieresis
ENCODING 196
SWIDTH 798 0
DWIDTH 11 0
BBX 11 15 0 0
BITMAP
054540
044440
014540
005400
005500
015500
015500
055540
054540
054540
155550
155550
155550
550054
540054
ENDCHAR
STARTCHAR Aring
ENCODING 197
SWIDTH 798 0
DWIDTH 11 0
BBX 11 16 0 0
BITMAP
005400
004400
004400
005400
005400
005500
015500
015500
055540
054540
054540
155550
155550
155550
550054
540054
ENDCHAR
STARTCHAR AE
ENCODING 198
SWIDTH 1078 0
DWIDTH 15 0
BBX 15 12 0 0
BITMAP
00055554
00155554
00155554
00554000
00554000
01555550
01555550
05415550
05555000
15555554
15555554
54015554
ENDCHAR
STARTCHAR Ccedilla
ENCODING 199
SWIDTH 776 0
DWIDTH 11 0
BBX 10 16 0 -4
BITMAP
015540
055560
165550
1A0040
540000
540000
540000
540000
160040
155550
055560
015540
001000
006400
000400
005400
ENDCHAR
STARTCHAR Egrave
ENCODING 200
SWIDTH 677 0
DWIDTH 9 0
BBX 9 16 0 0
BITMAP
005000
005400
001400
000000
655540
655540
655540
640000
640000
655500
655500
655500
640000
655540
655540
655540
ENDCHAR
STARTCHAR Eacute
ENCODING 201
SWIDTH 677 0
DWIDTH 9 0
BBX 9 16 0 0
BITMAP
001400
005400
005000
000000
655540
655540
655540
640000
640000
655500
655500
655500
640000
655540
655540
655540
ENDCHAR
STARTCHAR Ecircumflex
ENCODING 202
SWIDTH 677 0
DWIDTH 9 0
BBX 9 16 0 0
BITMAP
006400
015500
054900
000000
655540
655540
655540
640000
640000
655500
655500
655500
640000
655540
655540
655540
ENDCHAR
STARTCHAR Edieresis
ENCODING 203
SWIDTH 677 0
DWIDTH 9 0
BBX 9 15 0 0
BITMAP
054540
044440
054540
655540
655540
655540
640000
640000
655500
655500
655500
640000
655540
655540
655540
ENDCHAR
STARTCHAR Igrave
ENCODING 204
SWIDTH 262 0
DWIDTH 4 0
BBX 4 16 -1 0
BITMAP
50
14
15
00
19
19
19
19
19
19
19
19
19
19
19
19
ENDCHAR
STARTCHAR Iacute
ENCODING 205
SWIDTH 262 0
DWIDTH 4 0
BBX 4 16 0 0
BITMAP
05
05
14
00
64
64
64
64
64
64
64
64
64
64
64
64
ENDCHAR
STARTCHAR Icircumflex
ENCODING 206
SWIDTH 262 0
DWIDTH 4 0
BBX 6 16 -1 0
BITMAP
1500
5540
6150
0000
1900
1900
1900
1900
1900
1900
1900
1900
1900
1900
1900
1900
ENDCHAR
STARTCHAR Idieresis
ENCODING 207
SWIDTH 262 0
DWIDTH 4 0
BBX 7 15 -2 0
BITMAP
1414
4544
1414
0640
0640
0640
0640
0640
0640
0640
0640
0640
0640
0640
0640
ENDCHAR
STARTCHAR Eth
ENCODING 208
SWIDTH 856 0
DWIDTH 12 0
BBX 12 12 0 0
BITMAP
155540
155560
155554
150094
000015
555015
555015
555015
1500A4
155554
155550
155540
ENDCHAR
STARTCHAR Ntilde
ENCODING 209
SWIDTH 796 0
DWIDTH 11 0
BBX 11 14 0 0
BITMAP
015100
011500
640054
650054
644054
655054
659054
655454
645554
641954
641554
640554
640154
640054
ENDCHAR
STARTCHAR Ograve
ENCODING 210
SWIDTH 894 0
DWIDTH 13 0
BBX 12 16 0 0
BITMAP
005000
005400
001400
000000
015540
055554
165554
1A0055
540015
540016
540015
540015
160055
155554
055554
015540
ENDCHAR
STARTCHAR Oacute
ENCODING 211
SWIDTH 894 0
DWIDTH 13 0
BBX 12 16 0 0
BITMAP
000540
000500
001500
000000
015540
055554
165554
1A0055
540015
540016
540015
540015
160055
155554
055554
015540
ENDCHAR
STARTCHAR Ocircumflex
ENCODING 212
SWIDTH 894 0
DWIDTH 13 0
BBX 12 16 0 0
BITMAP
001500
00A500
015140
000000
015540
055554
165554
1A0055
540015
540016
540015
540015
160055
155554
055554
015540
ENDCHAR
STARTCHAR Otilde
ENCODING 213
SWIDTH 894 0
DWIDTH 13 0
BBX 12 14 0 0
BITMAP
005040
010540
015540
055554
165554
1A0055
540015
540016
540015
540015
160055
155554
055554
015540
ENDCHAR
STARTCHAR Odieresis
ENCODING 214
SWIDTH 894 0
DWIDTH 13 0
BBX 12 15 0 0
BITMAP
015140
011110
015140
015540
055554
165554
1A0055
540015
540016
540015
540015
160055
155554
055554
015540
ENDCHAR
STARTCHAR multiply
ENCODING 215
SWIDTH 370 0
DWIDTH 5 0
BBX 4 4 1 1
BITMAP
44
55
54
55
ENDCHAR
STARTCHAR Oslash
ENCODING 216
SWIDTH 894 0
DWIDTH 13 0
BBX 12 12 0 0
BITMAP
015650
055554
165558
160155
540555
54555A
549915
569015
155055
159554
155554
019540
ENDCHAR
STARTCHAR Ugrave
ENCODING 217
SWIDTH 702 0
DWIDTH 10 0
BBX 9 16 0 0
BITMAP
054000
014000
015000
000000
640280
640280
640280
640280
640280
640280
640280
540540
550540
155540
155540
055500
ENDCHAR
STARTCHAR Uacute
ENCODING 218
SWIDTH 702 0
DWIDTH 10 0
BBX 9 16 0 0
BITMAP
001500
001400
005000
000000
640280
640280
640280
640280
640280
640280
640280
540540
550540
155540
155540
055500
ENDCHAR
STARTCHAR Ucircumflex
ENCODING 219
SWIDTH 702 0
DWIDTH 10 0
BBX 9 16 0 0
BITMAP
015000
055400
061500
000000
640280
640280
640280
640280
640280
640280
640280
540540
550540
155540
155540
055500
ENDCHAR
STARTCHAR Udieresis
ENCODING 220
SWIDTH 702 0
DWIDTH 10 0
BBX 9 15 0 0
BITMAP
050500
105100
050500
640280
640280
640280
640280
640280
640280
640280
540540
550540
155540
155540
055500
ENDCHAR
STARTCHAR Yacute
ENCODING 221
SWIDTH 769 0
DWIDTH 11 0
BBX 11 16 0 0
BITMAP
000500
001400
005400
000000
550154
160150
154540
055540
015500
015500
005400
005400
005400
005400
005400
005400
ENDCHAR
STARTCHAR Thorn
ENCODING 222
SWIDTH 743 0
DWIDTH 10 0
BBX 10 12 0 0
BITMAP
640000
640000
655540
655550
655550
640150
640150
655550
655550
655540
640000
640000
ENDCHAR
STARTCHAR germandbls
ENCODING 223
SWIDTH 424 0
DWIDTH 6 0
BBX 6 6 0 0
BITMAP
2540
5540
5180
5150
5550
5580
ENDCHAR
STARTCHAR agrave
ENCODING 224
SWIDTH 414 0
DWIDTH 6 0
BBX 6 9 0 0
BITMAP
0400
0400
0000
0600
1600
1940
1A40
5A40
6550
ENDCHAR
STARTCHAR aacute
ENCODING 225
SWIDTH 414 0
DWIDTH 6 0
BBX 6 9 0 0
BITMAP
0100
0100
0000
0600
1600
1940
1A40
5A40
6550
ENDCHAR
STARTCHAR acircumflex
ENCODING 226
SWIDTH 414 0
DWIDTH 6 0
BBX 6 9 0 0
BITMAP
0400
1500
0000
0600
1600
1940
1A40
5A40
6550
ENDCHAR
STARTCHAR atilde
ENCODING 227
SWIDTH 414 0
DWIDTH 6 0
BBX 6 9 0 0
BITMAP
1440
1100
0000
0600
1600
1940
1A40
5A40
6550
ENDCHAR
STARTCHAR adieresis
ENCODING 228
SWIDTH 414 0
DWIDTH 6 0
BBX 6 8 0 0
BITMAP
1500
0000
0600
1600
1940
1A40
5A40
6550
ENDCHAR
STARTCHAR aring
ENCODING 229
SWIDTH 414 0
DWIDTH 6 0
BBX 6 8 0 0
BITMAP
0500
0500
0600
1600
1940
1A40
5A40
6550
ENDCHAR
STARTCHAR ae
ENCODING 230
SWIDTH 593 0
DWIDTH 8 0
BBX 8 6 0 0
BITMAP
0195
0695
0655
1555
1A65
5065
ENDCHAR
STARTCHAR ccedilla
ENCODING 231
SWIDTH 446 0
DWIDTH 6 0
BBX 6 9 0 -3
BITMAP
1540
5550
5000
5000
5550
1640
0600
0040
0500
ENDCHAR
STARTCHAR egrave
ENCODING 232
SWIDTH 363 0
DWIDTH 5 0
BBX 5 9 0 0
BITMAP
0400
0400
0000
5540
5540
5500
5500
5540
5540
ENDCHAR
STARTCHAR eacute
ENCODING 233
SWIDTH 363 0
DWIDTH 5 0
BBX 5 9 0 0
BITMAP
0100
0100
0000
5540
5540
5500
5500
5540
5540
ENDCHAR
STARTCHAR ecircumflex
ENCODING 234
SWIDTH 363 0
DWIDTH 5 0
BBX 5 9 0 0
BITMAP
0400
1500
0000
5540
5540
5500
5500
5540
5540
ENDCHAR
STARTCHAR edieresis
ENCODING 235
SWIDTH 363 0
DWIDTH 5 0
BBX 5 8 0 0
BITMAP
1500
0000
5540
5540
5500
5500
5540
5540
ENDCHAR
STARTCHAR igrave
ENCODING 236
SWIDTH 176 0
DWIDTH 2 0
BBX 2 9 0 0
BITMAP
40
50
00
50
50
50
50
50
50
ENDCHAR
STARTCHAR iacute
ENCODING 237
SWIDTH 176 0
DWIDTH 2 0
BBX 2 8 0 0
BITMAP
10
00
50
50
50
50
50
50
ENDCHAR
STARTCHAR icircumflex
ENCODING 238
SWIDTH 176 0
DWIDTH 2 0
BBX 2 9 0 0
BITMAP
40
50
00
50
50
50
50
50
50
ENDCHAR
STARTCHAR idieresis
ENCODING 239
SWIDTH 176 0
DWIDTH 2 0
BBX 3 8 0 0
BITMAP
54
00
50
50
50
50
50
50
ENDCHAR
STARTCHAR eth
ENCODING 240
SWIDTH 455 0
DWIDTH 6 0
BBX 6 6 0 0
BITMAP
5540
5550
0050
6450
5550
5540
ENDCHAR
STARTCHAR ntilde
ENCODING 241
SWIDTH 444 0
DWIDTH 6 0
BBX 6 9 0 0
BITMAP
0840
1140
0000
5450
5850
5550
5590
5150
5090
ENDCHAR
STARTCHAR ograve
ENCODING 242
SWIDTH 494 0
DWIDTH 7 0
BBX 7 9 0 0
BITMAP
0400
0100
0000
1550
5550
5014
5014
5550
1550
ENDCHAR
STARTCHAR oacute
ENCODING 243
SWIDTH 494 0
DWIDTH 7 0
BBX 7 9 0 0
BITMAP
0040
0100
0000
1550
5550
5014
5014
5550
1550
ENDCHAR
STARTCHAR ocircumflex
ENCODING 244
SWIDTH 494 0
DWIDTH 7 0
BBX 7 9 0 0
BITMAP
0100
0540
0000
1550
5550
5014
5014
5550
1550
ENDCHAR
STARTCHAR otilde
ENCODING 245
SWIDTH 494 0
DWIDTH 7 0
BBX 7 9 0 0
BITMAP
0540
0540
0000
1550
5550
5014
5014
5550
1550
ENDCHAR
STARTCHAR odieresis
ENCODING 246
SWIDTH 494 0
DWIDTH 7 0
BBX 7 8 0 0
BITMAP
0440
0000
1550
5550
5014
5014
5550
1550
ENDCHAR
STARTCHAR divide
ENCODING 247
SWIDTH 418 0
DWIDTH 6 0
BBX 5 5 0 0
BITMAP
0500
5540
1540
0500
0500
ENDCHAR
STARTCHAR oslash
ENCODING 248
SWIDTH 494 0
DWIDTH 7 0
BBX 7 6 0 0
BITMAP
1550
5550
5154
5514
1550
1550
ENDCHAR
STARTCHAR ugrave
ENCODING 249
SWIDTH 400 0
DWIDTH 6 0
BBX 5 9 0 0
BITMAP
0400
0400
0000
5140
5140
5140
5140
5540
1540
ENDCHAR
STARTCHAR uacute
ENCODING 250
SWIDTH 400 0
DWIDTH 6 0
BBX 5 9 0 0
BITMAP
0100
0500
0000
5140
5140
5140
5140
5540
1540
ENDCHAR
STARTCHAR ucircumflex
ENCODING 251
SWIDTH 400 0
DWIDTH 6 0
BBX 5 9 0 0
BITMAP
0400
1500
0000
5140
5140
5140
5140
5540
1540
ENDCHAR
STARTCHAR udieresis
ENCODING 252
SWIDTH 400 0
DWIDTH 6 0
BBX 5 8 0 0
BITMAP
1500
0000
5140
5140
5140
5140
5540
1540
ENDCHAR
STARTCHAR yacute
ENCODING 253
SWIDTH 422 0
DWIDTH 6 0
BBX 6 9 0 0
BITMAP
0100
0100
0000
5150
1A80
1640
0500
0500
0500
ENDCHAR
STARTCHAR thorn
ENCODING 254
SWIDTH 412 0
DWIDTH 6 0
BBX 6 6 0 0
BITMAP
5000
5540
5550
5550
5540
5000
ENDCHAR
STARTCHAR ydieresis
ENCODING 255
SWIDTH 422 0
DWIDTH 6 0
BBX 6 8 0 0
BITMAP
1500
0000
5150
1A80
1640
0500
0500
0500
ENDCHAR
STARTCHAR Edotaccent
ENCODING 278
SWIDTH 677 0
DWIDTH 9 0
BBX 9 14 0 0
BITMAP
003000
000000
655540
655540
655540
640000
640000
655500
655500
655500
640000
655540
655540
655540
ENDCHAR
STARTCHAR edotaccent
ENCODING 279
SWIDTH 363 0
DWIDTH 5 0
BBX 5 8 0 0
BITMAP
0900
0000
5540
5540
5500
5500
5540
5540
ENDCHAR
STARTCHAR dotlessi
ENCODING 305
SWIDTH 176 0
DWIDTH 2 0
BBX 2 6 0 0
BITMAP
50
50
50
50
50
50
ENDCHAR
STARTCHAR OE
ENCODING 338
SWIDTH 1221 0
DWIDTH 17 0
BBX 17 12 0 0
BITMAP
0155015540
0955015540
1555015540
1600000000
5400000000
5400015500
5400015500
5400015500
1600000000
1555015540
0955015540
0155015540
ENDCHAR
STARTCHAR oe
ENCODING 339
SWIDTH 637 0
DWIDTH 9 0
BBX 9 6 0 0
BITMAP
154540
554540
500500
500500
554540
154540
ENDCHAR
STARTCHAR Wcircumflex
ENCODING 372
SWIDTH 972 0
DWIDTH 14 0
BBX 14 16 0 0
BITMAP
00150000
00554000
00615000
00000000
54150150
54150540
15150540
15154540
15554540
15555500
15555500
05555500
05515500
05515400
05416000
01505400
ENDCHAR
STARTCHAR wcircumflex
ENCODING 373
SWIDTH 521 0
DWIDTH 7 0
BBX 7 9 0 0
BITMAP
0100
0440
0000
5154
5554
5954
1A54
1560
1860
ENDCHAR
STARTCHAR Ycircumflex
ENCODING 374
SWIDTH 769 0
DWIDTH 11 0
BBX 11 16 0 0
BITMAP
006400
025400
054600
000000
550154
160150
154540
055540
015500
015500
005400
005400
005400
005400
005400
005400
ENDCHAR
STARTCHAR ycircumflex
ENCODING 375
SWIDTH 422 0
DWIDTH 6 0
BBX 6 9 0 0
BITMAP
0400
1500
0000
5150
1A80
1640
0500
0500
0500
ENDCHAR
STARTCHAR Ydieresis
ENCODING 376
SWIDTH 769 0
DWIDTH 11 0
BBX 11 15 0 0
BITMAP
054540
044440
054500
550154
160150
154540
055540
015500
015500
005400
005400
005400
005400
005400
005400
ENDCHAR
STARTCHAR circumflex
ENCODING 710
SWIDTH 298 0
DWIDTH 4 0
BBX 2 2 1 7
BITMAP
40
50
ENDCHAR
STARTCHAR dotaccent
ENCODING 729
SWIDTH 212 0
DWIDTH 3 0
BBX 1 1 1 7
BITMAP
C0
ENDCHAR
STARTCHAR ring
ENCODING 730
SWIDTH 212 0
DWIDTH 3 0
BBX 1 2 1 6
BITMAP
40
40
ENDCHAR
STARTCHAR tilde
ENCODING 732
SWIDTH 329 0
DWIDTH 5 0
BBX 3 2 1 7
BITMAP
94
14
ENDCHAR
STARTCHAR gravecomb
ENCODING 768
SWIDTH 0 0
DWIDTH 0 0
BBX 1 1 1 7
BITMAP
40
ENDCHAR
STARTCHAR acutecomb
ENCODING 769
SWIDTH 0 0
DWIDTH 0 0
BBX 1 2 1 7
BITMAP
40
40
ENDCHAR
STARTCHAR uni0302
ENCODING 770
SWIDTH 0 0
DWIDTH 0 0
BBX 2 2 1 7
BITMAP
40
50
ENDCHAR
STARTCHAR tildecomb
ENCODING 771
SWIDTH 0 0
DWIDTH 0 0
BBX 3 2 1 7
BITMAP
94
14
ENDCHAR
STARTCHAR uni0307
ENCODING 775
SWIDTH 0 0
DWIDTH 0 0
BBX 1 1 1 7
BITMAP
C0
ENDCHAR
STARTCHAR uni0308
ENCODING 776
SWIDTH 0 0
DWIDTH 0 0
BBX 2 1 1 7
BITMAP
50
ENDCHAR
STARTCHAR uni030A
ENCODING 778
SWIDTH 0 0
DWIDTH 0 0
BBX 1 2 1 6
BITMAP
40
40
ENDCHAR
STARTCHAR uni0327
ENCODING 807
SWIDTH 0 0
DWIDTH 0 0
BBX 2 3 1 -3
BITMAP
90
10
50
ENDCHAR
STARTCHAR Wgrave
ENCODING 7808
SWIDTH 972 0
DWIDTH 14 0
BBX 14 16 0 0
BITMAP
00140000
00050000
00050000
00000000
54150150
54150540
15150540
15154540
15554540
15555500
15555500
05555500
05515500
05515400
05416000
01505400
ENDCHAR
STARTCHAR wgrave
ENCODING 7809
SWIDTH 521 0
DWIDTH 7 0
BBX 7 9 0 0
BITMAP
0100
0100
0000
5154
5554
5954
1A54
1560
1860
ENDCHAR
STARTCHAR Wacute
ENCODING 7810
SWIDTH 972 0
DWIDTH 14 0
BBX 14 16 0 0
BITMAP
00050000
00050000
00140000
00000000
54150150
54150540
15150540
15154540
15554540
15555500
15555500
05555500
05515500
05515400
05416000
01505400
ENDCHAR
STARTCHAR wacute
ENCODING 7811
SWIDTH 521 0
DWIDTH 7 0
BBX 7 8 0 0
BITMAP
0100
0000
5154
5554
5954
1A54
1560
1860
ENDCHAR
STARTCHAR Wdieresis
ENCODING 7812
SWIDTH 972 0
DWIDTH 14 0
BBX 14 15 0 0
BITMAP
00515000
01151000
00515000
54150150
54150540
15150540
15154540
15554540
15555500
15555500
05555500
05515500
05515400
05416000
01505400
ENDCHAR
STARTCHAR wdieresis
ENCODING 7813
SWIDTH 521 0
DWIDTH 7 0
BBX 7 8 0 0
BITMAP
0440
0000
5154
5554
5954
1A54
1560
1860
ENDCHAR
STARTCHAR uni1E9E
ENCODING 7838
SWIDTH 784 0
DWIDTH 11 0
BBX 11 12 0 0
BITMAP
655540
655540
655540
640540
641540
641550
645550
640054
640054
645554
645550
645540
ENDCHAR
STARTCHAR Ygrave
ENCODING 7922
SWIDTH 769 0
DWIDTH 11 0
BBX 11 16 0 0
BITMAP
005000
005400
001400
000000
550154
160150
154540
055540
015500
015500
005400
005400
005400
005400
005400
005400
ENDCHAR
STARTCHAR ygrave
ENCODING 7923
SWIDTH 422 0
DWIDTH 6 0
BBX 6 9 0 0
BITMAP
0400
0100
0000
5150
1A80
1640
0500
0500
0500
ENDCHAR
STARTCHAR endash
ENCODING 8211
SWIDTH 507 0
DWIDTH 7 0
BBX 6 2 1 2
BITMAP
5550
5550
ENDCHAR
STARTCHAR emdash
ENCODING 8212
SWIDTH 552 0
DWIDTH 8 0
BBX 6 2 1 2
BITMAP
5550
5550
ENDCHAR
STARTCHAR quoteleft
ENCODING 8216
SWIDTH 146 0
DWIDTH 2 0
BBX 2 2 0 4
BITMAP
40
50
ENDCHAR
STARTCHAR quoteright
ENCODING 8217
SWIDTH 146 0
DWIDTH 2 0
BBX 2 2 0 4
BITMAP
50
10
ENDCHAR
STARTCHAR quotesinglbase
ENCODING 8218
SWIDTH 146 0
DWIDTH 2 0
BBX 2 2 0 -2
BITMAP
50
10
ENDCHAR
STARTCHAR quotedblleft
ENCODING 8220
SWIDTH 297 0
DWIDTH 4 0
BBX 4 2 0 4
BITMAP
44
55
ENDCHAR
STARTCHAR quotedblright
ENCODING 8221
SWIDTH 297 0
DWIDTH 4 0
BBX 4 2 0 4
BITMAP
55
11
ENDCHAR
STARTCHAR quotedblbase
ENCODING 8222
SWIDTH 297 0
DWIDTH 4 0
BBX 4 2 0 -2
BITMAP
55
11
ENDCHAR
STARTCHAR bullet
ENCODING 8226
SWIDTH 302 0
DWIDTH 4 0
BBX 4 4 0 1
BITMAP
14
51
51
14
ENDCHAR
STARTCHAR ellipsis
ENCODING 8230
SWIDTH 528 0
DWIDTH 7 0
BBX 7 1 0 0
BITMAP
5154
ENDCHAR
STARTCHAR guilsinglleft
ENCODING 8249
SWIDTH 178 0
DWIDTH 2 0
BBX 2 3 0 1
BITMAP
10
50
10
ENDCHAR
STARTCHAR guilsinglright
ENCODING 8250
SWIDTH 178 0
DWIDTH 2 0
BBX 2 2 0 2
BITMAP
50
10
ENDCHAR
STARTCHAR fraction
ENCODING 8260
SWIDTH 362 0
DWIDTH 5 0
BBX 5 6 0 0
BITMAP
0140
0500
0500
1400
1400
5000
ENDCHAR
STARTCHAR uni2074
ENCODING 8308
SWIDTH 204 0
DWIDTH 3 0
BBX 3 3 0 3
BITMAP
20
10
64
ENDCHAR
STARTCHAR Euro
ENCODING 8364
SWIDTH 462 0
DWIDTH 6 0
BBX 6 6 0 0
BITMAP
0550
1550
5400
5400
1550
0550
ENDCHAR
STARTCHAR trademark
ENCODING 8482
SWIDTH 461 0
DWIDTH 6 0
BBX 6 3 0 3
BITMAP
B660
1190
1110
ENDCHAR
STARTCHAR minus
ENCODING 8722
SWIDTH 420 0
DWIDTH 6 0
BBX 6 2 0 2
BITMAP
7FD0
7FD0
ENDCHAR
STARTCHAR uni2215
ENCODING 8725
SWIDTH 278 0
DWIDTH 4 0
BBX 4 6 0 0
BITMAP
05
05
14
14
14
50
ENDCHAR
STARTCHAR .notdef
ENCODING -1
SWIDTH 500 0
DWIDTH 7 0
BBX 7 16 0 -3
BITMAP
6AA4
5014
5014
5014
5014
5014
5014
5014
5014
5014
5014
5014
5014
5014
5014
6AA4
ENDCHAR
STARTCHAR NULL
ENCODING -1
SWIDTH 600 0
DWIDTH 8 0
BBX 1 1 0 0
BITMAP
00
ENDCHAR
STARTCHAR acutecomb.case
ENCODING -1
SWIDTH 0 0
DWIDTH 0 0
BBX 3 3 1 13
BITMAP
14
50
50
ENDCHAR
STARTCHAR ampersand.case
ENCODING -1
SWIDTH 797 0
DWIDTH 11 0
BBX 11 12 0 0
BITMAP
015400
045500
055500
094600
055A00
065400
159040
55A854
545550
556540
155A40
056560
ENDCHAR
STARTCHAR asciicircum.case
ENCODING -1
SWIDTH 540 0
DWIDTH 8 0
BBX 7 6 0 6
BITMAP
0100
0540
0550
1550
1414
5014
ENDCHAR
STARTCHAR asciitilde.case
ENCODING -1
SWIDTH 640 0
DWIDTH 9 0
BBX 7 4 1 4
BITMAP
5500
5698
9554
0054
ENDCHAR
STARTCHAR asterisk.case
ENCODING -1
SWIDTH 482 0
DWIDTH 7 0
BBX 5 5 1 7
BITMAP
1800
5540
4140
1100
5540
ENDCHAR
STARTCHAR at.case
ENCODING -1
SWIDTH 915 0
DWIDTH 13 0
BBX 13 12 0 0
BITMAP
01555000
05555400
16002500
18164900
14814500
61414240
61414140
14964500
14150100
16401400
05555000
01554000
ENDCHAR
STARTCHAR backslash.case
ENCODING -1
SWIDTH 504 0
DWIDTH 7 0
BBX 7 14 0 -1
BITMAP
5400
5400
5500
1500
1500
1500
0540
0540
0540
0150
0150
0150
0054
0054
ENDCHAR
STARTCHAR bar.case
ENCODING -1
SWIDTH 262 0
DWIDTH 4 0
BBX 3 14 0 -1
BITMAP
14
64
64
64
64
64
64
64
64
64
64
64
64
64
ENDCHAR
STARTCHAR braceleft.case
ENCODING -1
SWIDTH 504 0
DWIDTH 7 0
BBX 5 14 1 -1
BITMAP
1540
1540
1540
1500
1500
1500
5500
5500
5500
1500
1500
1540
1540
1540
ENDCHAR
STARTCHAR braceright.case
ENCODING -1
SWIDTH 506 0
DWIDTH 7 0
BBX 5 14 1 -2
BITMAP
5500
5500
5500
1500
1500
1540
1540
1540
1500
1500
1500
5500
5500
5500
ENDCHAR
STARTCHAR bracketleft.case
ENCODING -1
SWIDTH 453 0
DWIDTH 6 0
BBX 6 14 0 -1
BITMAP
5550
6550
6550
6400
6400
6400
6400
6400
6400
6400
6400
6550
6550
5550
ENDCHAR
STARTCHAR bracketright.case
ENCODING -1
SWIDTH 453 0
DWIDTH 6 0
BBX 5 14 1 -2
BITMAP
5540
5540
5540
0540
0540
0540
0540
0540
0540
0540
0540
5540
5540
5540
ENDCHAR
STARTCHAR brokenbar.case
ENCODING -1
SWIDTH 262 0
DWIDTH 4 0
BBX 3 14 0 0
BITMAP
14
64
64
64
64
64
14
00
64
64
64
64
64
64
ENDCHAR
STARTCHAR bullet.case
ENCODING -1
SWIDTH 503 0
DWIDTH 7 0
BBX 7 6 0 3
BITMAP
0540
2560
5414
5414
2560
0540
ENDCHAR
STARTCHAR uni0327.case
ENCODING -1
SWIDTH 0 0
DWIDTH 0 0
BBX 3 4 1 -4
BITMAP
10
94
04
54
ENDCHAR
STARTCHAR cent.case
ENCODING -1
SWIDTH 577 0
DWIDTH 8 0
BBX 8 13 0 -1
BITMAP
0090
0090
0154
1555
1554
1500
5800
1500
1554
1555
0194
0090
0090
ENDCHAR
STARTCHAR uni0302.case
ENCODING -1
SWIDTH 0 0
DWIDTH 0 0
BBX 6 3 1 13
BITMAP
1500
5540
6150
ENDCHAR
STARTCHAR colon.case
ENCODING -1
SWIDTH 262 0
DWIDTH 4 0
BBX 3 8 0 0
BITMAP
64
64
14
00
00
14
64
64
ENDCHAR
STARTCHAR comma.case
ENCODING -1
SWIDTH 338 0
DWIDTH 5 0
BBX 4 4 0 -1
BITMAP
15
15
15
55
ENDCHAR
STARTCHAR copyright.case
ENCODING -1
SWIDTH 895 0
DWIDTH 13 0
BBX 12 12 0 0
BITMAP
015540
055554
160054
181505
505545
514006
514006
509545
141505
150054
055554
015540
ENDCHAR
STARTCHAR currency.case
ENCODING -1
SWIDTH 676 0
DWIDTH 9 0
BBX 9 10 0 0
BITMAP
040100
150500
155540
055900
051400
051400
155900
555140
140500
000100
ENDCHAR
STARTCHAR degree.case
ENCODING -1
SWIDTH 413 0
DWIDTH 6 0
BBX 6 5 0 7
BITMAP
1540
5540
5050
5580
1500
ENDCHAR
STARTCHAR uni0308.case
ENCODING -1
SWIDTH 0 0
DWIDTH 0 0
BBX 7 3 0 12
BITMAP
1414
5144
1414
ENDCHAR
STARTCHAR divide.case
ENCODING -1
SWIDTH 618 0
DWIDTH 9 0
BBX 7 8 1 2
BITMAP
0200
0440
0200
5554
5554
5554
0140
0140
ENDCHAR
STARTCHAR uni2215.case
ENCODING -1
SWIDTH 483 0
DWIDTH 7 0
BBX 7 12 0 0
BITMAP
0154
0150
0150
0550
0540
0540
0540
1500
1500
1500
5400
5400
ENDCHAR
STARTCHAR dollar.case
ENCODING -1
SWIDTH 660 0
DWIDTH 9 0
BBX 9 14 0 -1
BITMAP
004000
019000
159500
559940
549540
554000
255400
055500
005540
045540
559540
259540
059500
009000
ENDCHAR
STARTCHAR eight.case
ENCODING -1
SWIDTH 561 0
DWIDTH 8 0
BBX 8 12 0 0
BITMAP
0550
1554
5555
5415
6419
2A54
16A4
5469
5415
5555
1554
0550
ENDCHAR
STARTCHAR ellipsis.case
ENCODING -1
SWIDTH 766 0
DWIDTH 11 0
BBX 10 3 0 0
BITMAP
140050
6455A0
6455A0
ENDCHAR
STARTCHAR emdash.case
ENCODING -1
SWIDTH 790 0
DWIDTH 11 0
BBX 9 3 1 4
BITMAP
555540
555540
555540
ENDCHAR
STARTCHAR endash.case
ENCODING -1
SWIDTH 721 0
DWIDTH 10 0
BBX 9 3 1 4
BITMAP
555540
555540
555540
ENDCHAR
STARTCHAR equal.case
ENCODING -1
SWIDTH 618 0
DWIDTH 9 0
BBX 7 7 1 2
BITMAP
5554
5554
5554
0000
5554
5554
5554
ENDCHAR
STARTCHAR Euro.case
ENCODING -1
SWIDTH 767 0
DWIDTH 11 0
BBX 10 12 0 0
BITMAP
005540
055560
055550
154040
555400
000000
AAA800
150000
058040
055550
015560
005540
ENDCHAR
STARTCHAR exclam.case
ENCODING -1
SWIDTH 262 0
DWIDTH 4 0
BBX 3 12 0 0
BITMAP
64
64
64
64
64
64
64
64
54
14
64
64
ENDCHAR
STARTCHAR exclamdown.case
ENCODING -1
SWIDTH 262 0
DWIDTH 4 0
BBX 3 12 0 -3
BITMAP
54
54
14
54
54
54
54
54
54
54
54
54
ENDCHAR
STARTCHAR five.case
ENCODING -1
SWIDTH 558 0
DWIDTH 8 0
BBX 8 12 0 0
BITMAP
1554
1554
1554
5800
5950
5814
5994
0025
5415
5555
1554
0550
ENDCHAR
STARTCHAR four.case
ENCODING -1
SWIDTH 585 0
DWIDTH 8 0
BBX 8 12 0 0
BITMAP
0150
0150
0540
0540
1500
1500
5554
5555
5555
5555
0054
0054
ENDCHAR
STARTCHAR uni2074.case
ENCODING -1
SWIDTH 312 0
DWIDTH 4 0
BBX 4 5 0 7
BITMAP
14
14
55
55
55
ENDCHAR
STARTCHAR fraction.case
ENCODING -1
SWIDTH 655 0
DWIDTH 9 0
BBX 8 12 1 0
BITMAP
0015
0014
0054
0050
0140
0140
0500
0500
1400
1400
5000
5000
ENDCHAR
STARTCHAR gravecomb.case
ENCODING -1
SWIDTH 0 0
DWIDTH 0 0
BBX 3 3 1 13
BITMAP
50
50
14
ENDCHAR
STARTCHAR greater.case
ENCODING -1
SWIDTH 677 0
DWIDTH 9 0
BBX 9 9 0 1
BITMAP
500000
550000
555000
055500
005540
055500
155000
554000
540000
ENDCHAR
STARTCHAR guillemotleft.case
ENCODING -1
SWIDTH 666 0
DWIDTH 9 0
BBX 8 7 1 2
BITMAP
1405
5415
5455
5054
5455
5815
1405
ENDCHAR
STARTCHAR guillemotright.case
ENCODING -1
SWIDTH 666 0
DWIDTH 9 0
BBX 8 7 1 2
BITMAP
4050
5454
5455
6415
6455
5454
4050
ENDCHAR
STARTCHAR guilsinglleft.case
ENCODING -1
SWIDTH 338 0
DWIDTH 5 0
BBX 3 7 1 2
BITMAP
14
54
54
50
54
58
14
ENDCHAR
STARTCHAR guilsinglright.case
ENCODING -1
SWIDTH 338 0
DWIDTH 5 0
BBX 3 7 1 2
BITMAP
40
54
54
64
64
54
40
ENDCHAR
STARTCHAR hyphen.case
ENCODING -1
SWIDTH 445 0
DWIDTH 6 0
BBX 5 3 1 4
BITMAP
5540
5540
5540
ENDCHAR
STARTCHAR less.case
ENCODING -1
SWIDTH 677 0
DWIDTH 9 0
BBX 8 10 1 1
BITMAP
0001
0005
0055
0555
1550
5540
1554
0155
0055
0005
ENDCHAR
STARTCHAR logicalnot.case
ENCODING -1
SWIDTH 618 0
DWIDTH 9 0
BBX 7 6 1 1
BITMAP
5554
5554
5554
0064
0064
0010
ENDCHAR
STARTCHAR uni00B5.case
ENCODING -1
SWIDTH 792 0
DWIDTH 11 0
BBX 11 15 0 -3
BITMAP
640280
640280
640280
640280
640280
640280
640280
640540
640540
655554
655554
655514
640000
640000
540000
ENDCHAR
STARTCHAR minus.case
ENCODING -1
SWIDTH 618 0
DWIDTH 9 0
BBX 7 3 1 4
BITMAP
5554
5554
5554
ENDCHAR
STARTCHAR multiply.case
ENCODING -1
SWIDTH 580 0
DWIDTH 8 0
BBX 8 7 0 2
BITMAP
1814
5555
1554
0550
1558
1554
0010
ENDCHAR
STARTCHAR nine.case
ENCODING -1
SWIDTH 558 0
DWIDTH 8 0
BBX 8 12 0 -1
BITMAP
0550
1554
5555
5415
5415
5A55
1015
0555
5415
5555
1554
0550
ENDCHAR
STARTCHAR numbersign.case
ENCODING -1
SWIDTH 776 0
DWIDTH 11 0
BBX 9 12 1 0
BITMAP
054540
190540
555540
555540
555540
151500
555540
555540
555540
105400
545400
545400
ENDCHAR
STARTCHAR one.case
ENCODING -1
SWIDTH 378 0
DWIDTH 5 0
BBX 5 12 0 0
BITMAP
5540
5540
5540
0540
0540
0540
0540
0540
0540
0540
0540
0540
ENDCHAR
STARTCHAR onehalf.case
ENCODING -1
SWIDTH 735 0
DWIDTH 10 0
BBX 9 12 1 0
BITMAP
540500
541500
141400
145400
145000
015000
015500
051540
050540
140500
141540
501540
ENDCHAR
STARTCHAR onequarter.case
ENCODING -1
SWIDTH 722 0
DWIDTH 10 0
BBX 9 12 1 0
BITMAP
540500
541500
141400
145400
145000
015000
014500
051400
051540
141540
141540
500000
ENDCHAR
STARTCHAR uni00B9.case
ENCODING -1
SWIDTH 306 0
DWIDTH 4 0
BBX 3 5 1 7
BITMAP
54
54
14
14
14
ENDCHAR
STARTCHAR ordfeminine.case
ENCODING -1
SWIDTH 456 0
DWIDTH 6 0
BBX 5 5 1 7
BITMAP
1800
1900
5900
6900
6640
ENDCHAR
STARTCHAR ordmasculine.case
ENCODING -1
SWIDTH 489 0
DWIDTH 7 0
BBX 6 6 0 6
BITMAP
1540
1560
5050
5050
2550
0540
ENDCHAR
STARTCHAR paragraph.case
ENCODING -1
SWIDTH 893 0
DWIDTH 13 0
BBX 12 12 0 0
BITMAP
155555
155555
555555
540545
555685
255685
055685
000685
000685
000685
000685
000685
ENDCHAR
STARTCHAR parenleft.case
ENCODING -1
SWIDTH 290 0
DWIDTH 4 0
BBX 5 14 0 -1
BITMAP
0500
1A00
1500
1900
6400
5400
5400
5400
5400
5400
2800
1500
1500
0A40
ENDCHAR
STARTCHAR parenright.case
ENCODING -1
SWIDTH 290 0
DWIDTH 4 0
BBX 4 14 0 -2
BITMAP
A4
54
54
29
15
15
15
15
15
19
68
54
64
50
ENDCHAR
STARTCHAR percent.case
ENCODING -1
SWIDTH 827 0
DWIDTH 12 0
BBX 11 12 0 0
BITMAP
154054
554154
505160
558550
160540
002500
015400
015150
054558
154514
290554
550154
ENDCHAR
STARTCHAR period.case
ENCODING -1
SWIDTH 262 0
DWIDTH 4 0
BBX 3 3 0 0
BITMAP
14
64
64
ENDCHAR
STARTCHAR periodcentered.case
ENCODING -1
SWIDTH 262 0
DWIDTH 4 0
BBX 3 3 0 4
BITMAP
14
64
64
ENDCHAR
STARTCHAR plus.case
ENCODING -1
SWIDTH 616 0
DWIDTH 9 0
BBX 7 8 1 2
BITMAP
0540
0540
0540
5554
5554
5554
0540
0540
ENDCHAR
STARTCHAR plusminus.case
ENCODING -1
SWIDTH 618 0
DWIDTH 9 0
BBX 7 11 1 0
BITMAP
0540
0540
0540
5554
5554
5554
0540
0540
5554
5554
5554
ENDCHAR
STARTCHAR question.case
ENCODING -1
SWIDTH 598 0
DWIDTH 8 0
BBX 8 12 0 0
BITMAP
0554
1554
1955
5415
0015
0054
0194
0150
0150
0140
0150
0150
ENDCHAR
STARTCHAR questiondown.case
ENCODING -1
SWIDTH 598 0
DWIDTH 8 0
BBX 8 12 0 -3
BITMAP
0150
0150
0140
0150
0150
0A40
1940
6500
5415
1955
1554
0550
ENDCHAR
STARTCHAR quotedbl.case
ENCODING -1
SWIDTH 464 0
DWIDTH 7 0
BBX 6 4 0 8
BITMAP
54A0
54A0
54A0
5450
ENDCHAR
STARTCHAR quotedblbase.case
ENCODING -1
SWIDTH 464 0
DWIDTH 7 0
BBX 6 4 0 -1
BITMAP
5450
5450
1450
1410
ENDCHAR
STARTCHAR quotedblleft.case
ENCODING -1
SWIDTH 464 0
DWIDTH 7 0
BBX 6 4 0 7
BITMAP
5050
5050
5450
5450
ENDCHAR
STARTCHAR quotedblright.case
ENCODING -1
SWIDTH 464 0
DWIDTH 7 0
BBX 6 4 0 8
BITMAP
5450
5450
1450
1410
ENDCHAR
STARTCHAR quoteleft.case
ENCODING -1
SWIDTH 212 0
DWIDTH 3 0
BBX 3 4 0 7
BITMAP
50
50
54
54
ENDCHAR
STARTCHAR quoteright.case
ENCODING -1
SWIDTH 212 0
DWIDTH 3 0
BBX 3 4 0 8
BITMAP
54
54
14
14
ENDCHAR
STARTCHAR quotesinglbase.case
ENCODING -1
SWIDTH 212 0
DWIDTH 3 0
BBX 3 4 0 -1
BITMAP
54
54
14
14
ENDCHAR
STARTCHAR quotesingle.case
ENCODING -1
SWIDTH 212 0
DWIDTH 3 0
BBX 3 4 0 8
BITMAP
54
54
54
54
ENDCHAR
STARTCHAR registered.case
ENCODING -1
SWIDTH 895 0
DWIDTH 13 0
BBX 12 12 0 0
BITMAP
015540
055554
160054
186505
506545
506546
506A06
505545
145145
150054
055554
015540
ENDCHAR
STARTCHAR uni030A.case
ENCODING -1
SWIDTH 0 0
DWIDTH 0 0
BBX 4 4 0 12
BITMAP
14
51
51
14
ENDCHAR
STARTCHAR section.case
ENCODING -1
SWIDTH 645 0
DWIDTH 9 0
BBX 9 15 0 -2
BITMAP
055400
195A00
155540
160000
169400
055900
156600
150540
155600
159400
055500
005500
555900
255500
055400
ENDCHAR
STARTCHAR semicolon.case
ENCODING -1
SWIDTH 338 0
DWIDTH 5 0
BBX 4 10 0 -1
BITMAP
05
1A
1A
00
00
00
15
15
15
55
ENDCHAR
STARTCHAR seven.case
ENCODING -1
SWIDTH 505 0
DWIDTH 7 0
BBX 7 12 0 0
BITMAP
5554
5554
5554
0054
0150
0150
0150
0150
0540
0540
0540
1500
ENDCHAR
STARTCHAR six.case
ENCODING -1
SWIDTH 558 0
DWIDTH 8 0
BBX 8 12 0 0
BITMAP
0550
1554
5555
5415
5550
5414
5694
5425
5415
5555
1554
0550
ENDCHAR
STARTCHAR slash.case
ENCODING -1
SWIDTH 504 0
DWIDTH 7 0
BBX 7 14 0 -1
BITMAP
0054
0054
0054
0150
0150
0150
0540
0540
0540
1500
1500
1500
5400
5400
ENDCHAR
STARTCHAR uni00AD.case
ENCODING -1
SWIDTH 445 0
DWIDTH 6 0
BBX 5 3 1 4
BITMAP
5540
5540
5540
ENDCHAR
STARTCHAR sterling.case
ENCODING -1
SWIDTH 618 0
DWIDTH 9 0
BBX 8 12 0 0
BITMAP
0554
2555
5555
5405
1400
5550
5550
5550
1500
5555
5555
5555
ENDCHAR
STARTCHAR three.case
ENCODING -1
SWIDTH 558 0
DWIDTH 8 0
BBX 8 12 0 0
BITMAP
0550
1554
5555
5415
0054
0014
0094
0025
5415
5555
1554
0550
ENDCHAR
STARTCHAR threequarters.case
ENCODING -1
SWIDTH 722 0
DWIDTH 10 0
BBX 10 12 0 0
BITMAP
150140
550540
050500
051500
551400
155400
005140
014500
014550
050550
050550
140000
ENDCHAR
STARTCHAR uni00B3.case
ENCODING -1
SWIDTH 332 0
DWIDTH 5 0
BBX 4 6 0 6
BITMAP
15
55
05
05
55
15
ENDCHAR
STARTCHAR tildecomb.case
ENCODING -1
SWIDTH 0 0
DWIDTH 0 0
BBX 5 2 1 12
BITMAP
5440
0540
ENDCHAR
STARTCHAR trademark.case
ENCODING -1
SWIDTH 850 0
DWIDTH 12 0
BBX 12 6 0 6
BITMAP
555919
695659
181999
181559
181409
181409
ENDCHAR
STARTCHAR two.case
ENCODING -1
SWIDTH 558 0
DWIDTH 8 0
BBX 8 12 0 0
BITMAP
0550
2558
5555
5415
0019
0068
02A0
0950
1540
1554
1554
1554
ENDCHAR
STARTCHAR uni00B2.case
ENCODING -1
SWIDTH 339 0
DWIDTH 5 0
BBX 3 6 1 6
BITMAP
54
54
28
54
54
54
ENDCHAR
STARTCHAR underscore.case
ENCODING -1
SWIDTH 667 0
DWIDTH 9 0
BBX 8 3 1 0
BITMAP
5555
5555
5555
ENDCHAR
STARTCHAR yen.case
ENCODING -1
SWIDTH 769 0
DWIDTH 11 0
BBX 11 12 0 0
BITMAP
550154
160150
154540
055540
016500
015500
005400
055540
055540
055540
005400
005400
ENDCHAR
STARTCHAR zero.case
ENCODING -1
SWIDTH 558 0
DWIDTH 8 0
BBX 8 12 0 0
BITMAP
0550
1554
5555
5415
5415
5415
5415
5415
5415
5555
1554
0550
ENDCHAR
ENDFONT
